<?xml version="1.0" standalone="no"?>
<!DOCTYPE svg PUBLIC "-//W3C//DTD SVG 20010904//EN"
 "http://www.w3.org/TR/2001/REC-SVG-20010904/DTD/svg10.dtd">
<svg version="1.0" xmlns="http://www.w3.org/2000/svg"
 width="949.000000pt" height="948.000000pt" viewBox="0 0 949.000000 948.000000"
 preserveAspectRatio="xMidYMid meet">

<g transform="translate(0.000000,948.000000) scale(0.100000,-0.100000)"
fill="#000000" stroke="none">
<path d="M10 4745 l0 -4735 4735 0 4735 0 0 4735 0 4735 -4735 0 -4735 0 0
-4735z m9450 0 l0 -4715 -4715 0 -4715 0 0 4715 0 4715 4715 0 4715 0 0 -4715z"/>
<path d="M2148 6255 c-238 -33 -481 -130 -682 -272 -108 -77 -276 -247 -355
-358 -73 -104 -169 -294 -206 -409 -55 -172 -69 -266 -69 -471 0 -159 4 -207
23 -295 67 -313 199 -558 421 -780 215 -217 461 -351 768 -422 l97 -23 2550
-3 c2272 -2 2562 -1 2658 13 645 94 1163 597 1283 1245 24 131 25 401 1 525
-110 565 -492 1007 -1026 1185 -240 81 19 74 -2826 76 -2069 2 -2558 0 -2637
-11z m5166 -541 c104 -25 184 -72 272 -159 63 -62 90 -97 117 -155 60 -125 72
-185 71 -350 0 -129 -3 -154 -27 -225 -70 -213 -233 -368 -439 -421 -85 -22
-244 -22 -328 1 -298 78 -486 358 -467 695 9 148 37 242 109 357 71 113 212
219 338 254 106 29 242 30 354 3z m-4869 -38 c218 -60 325 -194 313 -390 -10
-155 -96 -261 -258 -317 -53 -19 -94 -24 -225 -28 l-160 -6 -3 -257 -2 -258
-125 0 -125 0 0 541 c0 367 -4 554 -11 585 -13 49 -48 84 -85 84 -40 0 -54 11
-54 42 l0 30 338 -5 c272 -3 349 -7 397 -21z m2178 -350 c33 -16 87 -77 87
-98 0 -4 -20 -23 -44 -43 l-44 -36 -47 35 c-41 32 -54 36 -104 36 -41 0 -71
-7 -107 -25 l-49 -24 3 -376 3 -375 -125 0 -124 0 -4 378 c-3 359 -4 379 -24
412 -23 41 -56 60 -101 60 -30 0 -33 3 -33 31 l0 30 143 -3 c148 -3 145 -2
212 -52 8 -6 24 -1 46 15 84 60 228 76 312 35z m679 13 c74 -16 162 -63 212
-113 65 -65 98 -143 104 -247 2 -48 2 -99 -2 -113 l-6 -26 -290 0 c-160 0
-290 -3 -290 -8 0 -41 24 -183 36 -211 34 -82 100 -125 190 -124 81 1 141 28
210 98 l56 55 29 -21 29 -20 -32 -46 c-162 -225 -550 -207 -701 34 -120 191
-92 503 57 641 49 45 126 88 183 101 55 13 154 13 215 0z m-2172 -27 c19 -9
43 -33 55 -52 18 -32 21 -58 26 -325 4 -171 11 -305 18 -327 18 -59 55 -95
107 -106 58 -13 104 0 150 40 65 57 64 51 64 438 l0 350 125 0 125 0 0 -455 0
-455 -83 0 -84 0 -32 45 c-18 25 -36 45 -40 45 -4 0 -16 -9 -27 -21 -32 -35
-96 -67 -160 -79 -121 -24 -281 22 -344 98 -57 69 -63 101 -70 397 -5 183 -11
281 -20 304 -13 35 -58 61 -105 61 -21 0 -25 5 -25 30 l0 30 143 0 c115 0 149
-3 177 -18z m3200 -377 l0 -95 -270 0 -270 0 0 95 0 95 270 0 270 0 0 -95z
m-4320 -842 c73 -8 120 -51 120 -109 -1 -68 -46 -104 -130 -104 l-51 0 3 -77
c3 -72 5 -78 26 -81 12 -2 22 -8 22 -13 0 -5 -36 -9 -80 -9 -47 0 -80 4 -80
10 0 6 9 10 19 10 10 0 22 7 25 16 3 9 6 84 6 168 0 158 -4 176 -43 176 -10 0
-16 4 -12 9 6 11 97 13 175 4z m310 -3 c0 -5 -10 -10 -22 -12 -22 -3 -23 -6
-25 -143 -3 -154 3 -181 50 -203 39 -19 100 -7 132 25 25 26 26 27 23 172 l-3
145 -25 6 c-22 5 -23 7 -7 13 28 11 115 8 122 -3 3 -5 -3 -10 -14 -10 -33 0
-41 -32 -41 -160 0 -141 -12 -180 -62 -206 -19 -10 -55 -17 -88 -17 -33 0 -69
7 -88 17 -51 26 -62 65 -62 214 0 133 -5 152 -43 152 -10 0 -16 4 -13 8 7 11
166 13 166 2z m459 1 c44 -6 60 -14 84 -41 24 -27 28 -39 23 -69 -6 -37 -45
-81 -73 -81 -21 0 -12 -18 44 -95 31 -42 59 -69 81 -77 47 -18 39 -28 -20 -28
l-53 1 -64 89 c-42 59 -71 90 -83 90 -17 0 -19 -7 -16 -77 3 -72 5 -78 26 -81
12 -2 22 -8 22 -13 0 -5 -38 -9 -85 -9 -50 0 -85 4 -85 10 0 6 11 10 24 10 13
0 27 7 30 16 10 27 7 304 -4 325 -6 10 -20 19 -31 19 -11 0 -17 5 -14 10 7 12
115 12 194 1z m499 -38 c2 -26 -1 -43 -7 -43 -6 0 -11 9 -11 20 0 28 -30 40
-104 40 l-66 0 0 -75 0 -75 58 0 c60 0 82 11 82 43 0 10 5 15 10 12 12 -8 13
-135 1 -135 -5 0 -12 11 -15 24 -6 25 -38 36 -102 36 l-34 0 0 -85 0 -85 74 0
c72 0 75 1 106 36 17 20 33 34 36 32 2 -3 -4 -26 -13 -51 l-17 -47 -148 0
c-85 0 -148 4 -148 9 0 5 10 11 23 13 22 3 22 6 25 158 3 177 0 200 -28 200
-11 0 -20 4 -20 10 0 5 58 8 148 7 l147 -2 3 -42z m452 -136 c57 -135 82 -185
98 -192 39 -17 23 -25 -53 -25 -43 0 -75 4 -75 10 0 6 6 10 14 10 25 0 27 16
9 64 l-17 46 -77 0 -76 0 -17 -45 c-18 -46 -15 -65 10 -65 8 0 14 -4 14 -10 0
-6 -27 -10 -60 -10 -33 0 -60 4 -60 10 0 6 7 10 15 10 16 0 47 55 99 181 59
144 85 199 93 199 5 0 42 -82 83 -183z m221 173 c10 -6 66 -70 126 -142 l108
-133 3 120 c1 65 0 125 -2 132 -3 7 -15 13 -26 13 -11 0 -20 4 -20 8 0 13 127
15 135 2 3 -5 -2 -10 -12 -10 -39 0 -43 -17 -43 -202 0 -98 -4 -178 -8 -178
-4 0 -61 66 -127 148 l-120 147 -3 -124 c-1 -69 0 -131 2 -138 3 -7 15 -13 26
-13 11 0 20 -4 20 -10 0 -6 -30 -10 -70 -10 -40 0 -70 4 -70 10 0 6 9 10 20
10 33 0 40 33 40 179 0 139 0 140 -26 160 -15 12 -33 21 -41 21 -8 0 -12 4 -9
8 7 12 75 13 97 2z m637 -22 c64 -31 95 -88 94 -169 -1 -77 -31 -132 -92 -167
-40 -24 -56 -27 -172 -30 -90 -3 -128 -1 -128 7 0 6 9 11 20 11 33 0 40 33 40
180 0 150 -7 180 -43 180 -18 0 -19 2 -7 10 9 6 62 8 128 6 93 -4 123 -9 160
-28z m586 -1 c101 -78 103 -255 2 -332 -158 -120 -369 55 -290 243 35 85 97
124 190 119 49 -2 69 -8 98 -30z m361 11 c31 -14 55 -55 55 -93 0 -29 -49 -85
-74 -85 -9 0 -16 -3 -16 -7 0 -21 109 -150 137 -163 46 -21 41 -30 -17 -30
l-50 0 -67 90 c-43 58 -73 90 -85 90 -17 0 -19 -7 -16 -77 3 -72 5 -78 26 -81
12 -2 22 -8 22 -13 0 -5 -36 -9 -80 -9 -47 0 -80 4 -80 10 0 6 9 10 19 10 10
0 22 7 25 16 3 9 6 84 6 168 0 159 -4 176 -44 176 -18 0 -19 2 -6 11 19 13
209 4 245 -13z m310 12 c3 -5 -3 -10 -14 -10 -34 0 -41 -32 -41 -180 0 -147 7
-180 40 -180 11 0 20 -4 20 -10 0 -6 -35 -10 -85 -10 -47 0 -85 4 -85 9 0 5
10 11 23 13 22 3 22 4 22 178 0 174 0 175 -23 178 -12 2 -20 8 -17 13 8 12
152 12 160 -1z m321 0 c18 -7 30 -7 40 1 10 8 14 3 19 -24 4 -18 5 -47 3 -63
l-3 -29 -18 33 c-54 99 -190 93 -237 -11 -55 -121 13 -277 121 -277 76 0 79 4
79 92 0 71 -2 80 -20 85 -44 12 -16 23 56 23 47 0 73 -4 69 -10 -3 -5 -12 -10
-19 -10 -18 0 -26 -32 -26 -110 0 -65 0 -66 -32 -77 -59 -20 -105 -24 -155
-13 -95 21 -150 82 -160 174 -5 47 -2 64 22 112 37 76 95 114 176 114 32 0 70
-5 85 -10z m487 -90 c44 -52 96 -115 118 -140 l38 -45 -2 130 c-2 126 -3 130
-24 133 -13 2 -23 7 -23 10 0 11 129 12 135 2 4 -6 -2 -10 -12 -10 -39 0 -43
-17 -43 -202 0 -98 -4 -178 -8 -178 -4 0 -61 65 -126 145 -65 80 -121 145
-125 145 -8 0 -5 -246 4 -260 3 -5 15 -10 26 -10 10 0 19 -4 19 -10 0 -6 -30
-10 -70 -10 -40 0 -70 4 -70 10 0 6 9 10 20 10 32 0 40 39 40 185 0 132 0 134
-26 154 -29 23 -83 28 -102 9 -13 -13 -18 -301 -6 -332 3 -9 15 -16 25 -16 10
0 19 -4 19 -10 0 -6 -33 -10 -80 -10 -44 0 -80 4 -80 9 0 5 10 11 23 13 22 3
22 4 22 178 0 174 0 175 -22 178 -13 2 -23 7 -23 12 0 5 62 8 137 7 l137 -2
79 -95z m537 -68 c75 -178 93 -212 115 -212 8 0 15 -4 15 -10 0 -6 -32 -10
-75 -10 -43 0 -75 4 -75 10 0 6 7 10 15 10 19 0 19 28 0 74 l-15 36 -75 0 -75
0 -15 -36 c-20 -49 -19 -65 5 -71 40 -11 18 -23 -40 -23 -33 0 -60 3 -60 6 0
3 10 14 23 24 13 11 51 87 96 194 41 97 79 175 84 173 5 -1 40 -76 77 -165z
m320 157 c0 -5 -8 -9 -19 -9 -37 0 -42 -21 -39 -186 l3 -159 50 -3 c71 -5 117
11 139 48 26 44 31 30 11 -29 l-17 -51 -149 0 c-85 0 -149 4 -149 9 0 5 10 11
23 13 22 3 22 6 25 158 3 177 0 200 -28 200 -11 0 -20 4 -20 8 0 5 38 9 85 10
47 0 85 -3 85 -9z"/>
<path d="M7015 5617 c-101 -48 -176 -164 -211 -322 -23 -110 -24 -360 0 -470
34 -160 115 -281 218 -325 66 -28 200 -26 263 5 59 29 122 97 155 167 51 107
65 192 65 388 0 254 -39 395 -137 492 -64 65 -107 82 -213 86 -78 2 -97 0
-140 -21z"/>
<path d="M2180 5613 c-14 -2 -35 -6 -47 -8 l-23 -5 0 -290 0 -290 88 0 c107 0
152 12 198 52 48 42 72 93 84 178 19 137 -23 275 -100 326 -20 13 -60 28 -89
34 -54 10 -66 10 -111 3z"/>
<path d="M5135 5241 c-17 -10 -38 -29 -47 -43 -23 -35 -45 -121 -52 -200 l-5
-68 164 0 c189 0 172 -13 154 117 -13 102 -48 176 -93 197 -45 21 -84 20 -121
-3z"/>
<path d="M1957 4064 c-4 -4 -7 -43 -7 -86 l0 -78 33 0 c95 0 106 148 12 166
-17 3 -33 2 -38 -2z"/>
<path d="M2700 3990 l0 -80 35 0 c46 0 85 37 85 80 0 43 -39 80 -85 80 l-35 0
0 -80z"/>
<path d="M3601 3936 c-17 -37 -31 -70 -31 -72 0 -2 27 -4 60 -4 33 0 60 1 60
3 0 1 -13 34 -29 72 l-30 70 -30 -69z"/>
<path d="M4415 4064 c-6 -2 -9 -66 -7 -170 l3 -166 60 4 c51 4 64 9 94 38 59
57 67 171 17 239 -33 46 -120 75 -167 55z"/>
<path d="M5008 4065 c-38 -21 -60 -68 -65 -140 -10 -121 38 -205 116 -205 33
0 49 7 79 34 36 33 37 36 41 117 4 94 -8 146 -43 178 -31 29 -92 36 -128 16z"/>
<path d="M5400 3990 l0 -80 35 0 c46 0 85 37 85 80 0 43 -39 80 -85 80 l-35 0
0 -80z"/>
<path d="M7067 3938 c-15 -35 -27 -66 -27 -70 0 -5 27 -8 59 -8 l59 0 -27 65
c-15 36 -30 67 -33 70 -3 3 -17 -23 -31 -57z"/>
</g>
</svg>
